<svg preserveAspectRatio="xMidYMid meet" overflow="visible" style="display: block;" viewBox="0 0 102.045 25.817" fill="none" xmlns="http://www.w3.org/2000/svg">
<g id="base">
<path id="Vector" d="M35.6522 25.797C33.6415 25.797 31.7026 25.062 30.5602 23.1231H29.8969V25.2454H25.3255V0H29.8969V9.18419H30.5602C31.7337 7.17355 33.9277 6.39864 35.9073 6.39864C40.8462 6.39864 44.1834 10.3482 44.1834 15.9097C44.1834 21.4712 40.5201 25.7875 35.6522 25.7875V25.7978V25.797ZM34.6628 21.7056C37.4794 21.7056 39.4893 19.3992 39.4893 16.1034C39.4893 12.8076 37.438 10.5012 34.6628 10.5012C31.8876 10.5012 29.9072 12.6952 29.9072 16.1034C29.9072 19.5116 31.9179 21.7056 34.6628 21.7056ZM52.6325 25.797C49.1223 25.797 46.265 23.6748 46.265 20.1949C46.265 16.7149 49.4077 14.776 53.2145 14.3782L58.5927 13.8273V12.8068C58.5927 11.2355 57.3067 10.1329 55.0418 10.1329C52.7768 10.1329 51.6336 11.0816 51.2358 12.5103H46.8478C47.2863 9.03032 50.1746 6.39784 55.0418 6.39784C59.9089 6.39784 62.838 8.66359 62.838 13.0923V22.0213C62.838 23.1542 62.9504 24.7256 63.0214 25.164V25.2358H58.6333C58.5927 24.6131 58.5927 24.032 58.5927 23.4093H57.9294C56.7965 25.2358 54.817 25.7867 52.623 25.7867L52.6333 25.797H52.6325ZM53.8778 22.3586C56.8778 22.3586 58.6023 20.0928 58.6023 17.7872V16.8688L54.5714 17.3487C52.0816 17.6445 50.877 18.3692 50.877 19.9812C50.877 21.5932 52.1223 22.3586 53.877 22.3586H53.8778ZM73.8279 25.797C69.2151 25.797 65.9193 23.4906 65.4091 19.868H69.9095C70.4197 21.48 72.1035 22.1744 73.859 22.1744C75.6145 22.1744 77.1141 21.409 77.1141 20.0521C77.1141 18.6952 75.7261 18.3277 73.8184 18.0008L71.8795 17.674C68.2162 17.0513 65.9504 15.5103 65.9504 12.2249C65.9504 8.93944 69.0931 6.4082 73.4508 6.4082C77.8085 6.4082 80.5128 8.38775 81.2781 11.827H76.8901C76.3799 10.4701 75.023 9.92881 73.4819 9.92881C71.9409 9.92881 70.4102 10.7348 70.4102 11.8677C70.4102 13.0006 71.3589 13.4088 73.3392 13.7348L75.2781 14.0617C78.829 14.6437 81.5332 16.113 81.5332 19.6639C81.5332 23.2148 78.3084 25.817 73.808 25.817L73.8287 25.7962L73.8279 25.797ZM93.0023 25.797C87.369 25.797 83.6347 21.9496 83.6347 16.062C83.6347 10.1744 87.5843 6.39784 93.0438 6.39784C98.5032 6.39784 102.045 10.6431 102.045 16.2453V17.0513H88.1049C88.3297 20.092 90.4519 21.8778 93.0135 21.8778C95.575 21.8778 96.4217 21.1428 97.0443 19.8672H101.728C100.779 23.3065 97.3704 25.7962 93.0135 25.7962H93.0031L93.0023 25.797ZM97.5745 14.021C97.2069 11.5719 95.2681 10.1433 93.0031 10.1433C90.7381 10.1433 88.6151 11.5313 88.1766 14.021H97.5856H97.5753H97.5745Z" fill="var(--fill-0, white)"/>
<path id="Vector_2" d="M1.10178 25.2566C0.36673 25.2566 0 24.8891 0 24.1548V8.0514C0 7.31635 0.367527 6.94962 1.10178 6.94962H17.2044C17.9395 6.94962 18.3062 7.31714 18.3062 8.0514V24.154C18.3062 24.8891 17.9387 25.2558 17.2044 25.2558H1.10178V25.2566Z" fill="var(--fill-0, white)"/>
</g>
</svg>
