<svg preserveAspectRatio="xMidYMid meet" overflow="visible" style="display: block;" viewBox="0 0 106.524 28.0797" fill="none" xmlns="http://www.w3.org/2000/svg">
<g id="Dash">
<path id="Vector" d="M22.6791 4.87839e-05H10.0838L9.03269 5.83292L20.4166 5.85071C26.0106 5.85071 27.6674 7.87799 27.6318 11.2568C27.6139 12.9818 26.8657 15.8982 26.5272 16.8407C25.6721 19.3659 23.8906 22.2468 17.2455 22.229H6.18223L5.13112 28.0619H17.7087C22.1447 28.0619 24.0331 27.5462 26.0284 26.6214C30.4644 24.5764 33.1011 20.2195 34.1522 14.5289C35.7199 6.02856 33.7602 4.87839e-05 22.6791 4.87839e-05Z" fill="var(--fill-0, white)"/>
<path id="Vector_2" d="M61.6762 28.0619L62.5669 22.9937H73.3272C74.1647 22.9937 74.7702 22.478 74.8948 21.6422C75.0553 20.7886 74.6455 20.2907 73.7903 20.2907H68.6419C64.5798 20.2907 62.6379 17.9255 63.3506 13.8709C64.0631 9.81637 66.8601 7.45123 70.9222 7.45123H82.6266L81.7004 12.5194H71.3853C70.5479 12.5194 69.9424 13.0351 69.8174 13.8709C69.6572 14.7068 70.0671 15.2225 70.9222 15.2225H76.0707C80.1324 15.2225 82.0743 17.5876 81.3619 21.6422C80.6491 25.6968 77.8879 28.0619 73.8258 28.0619H61.6762Z" fill="var(--fill-0, white)"/>
<path id="Vector_3" d="M45.2655 28.0618C38.585 28.0618 35.5742 24.4341 36.7677 17.7476C37.9081 11.0789 42.2191 7.43335 48.9177 7.43335H60.7648L57.1307 28.044H45.2655V28.0618ZM52.9617 12.5193H49.9153C46.2812 12.5193 44.1255 14.1198 43.4841 17.7654C42.8072 21.3931 44.161 23.0114 47.7955 23.0114H51.1267L52.9617 12.5193Z" fill="var(--fill-0, white)"/>
<path id="Vector_4" d="M97.307 28.0619L99.4268 16.0582C99.8011 13.6931 98.839 12.6794 96.4695 12.6794H93.1025L90.3945 28.0619H83.5357L88.4881 4.87839e-05H95.3473L94.0287 7.45119H99.1597C105.163 7.45119 107.319 10.0653 106.268 16.076L104.148 28.0797H97.307V28.0619Z" fill="var(--fill-0, white)"/>
<path id="Vector_5" d="M4.63195 11.0965C1.33614 11.0965 0.85513 13.2483 0.552271 14.5464C0.142521 16.2536 0 16.9294 0 16.9294H12.8983C16.1941 16.9294 16.6751 14.7776 16.9779 13.4794C17.3877 11.7722 17.5302 11.0965 17.5302 11.0965H4.63195Z" fill="var(--fill-0, white)"/>
</g>
</svg>
