<svg preserveAspectRatio="xMidYMid meet" overflow="visible" style="display: block;" viewBox="0 0 196.84 32.7799" fill="none" xmlns="http://www.w3.org/2000/svg">
<g id="Group">
<path id="Vector" d="M46.8841 12.3071H53.286V14.3004H48.8741V15.3934H52.3325V17.3867H48.8741V18.4764H53.286V20.4697H46.8841V12.3071Z" fill="var(--fill-0, white)"/>
<path id="Vector_2" d="M71.7706 12.3071V14.3004H69.1957V20.4863H67.2027V14.2938H64.6211V12.3005L71.7706 12.3071Z" fill="var(--fill-0, white)"/>
<path id="Vector_3" d="M88.1194 12.3298H90.1127V20.4857H88.1194V17.6785H84.9934V20.4857H83V12.3298H84.9934V15.6885H88.1194V12.3298Z" fill="var(--fill-0, white)"/>
<path id="Vector_4" d="M101.577 12.3071H107.979V14.3004H103.567V15.3934H107.019V17.3867H103.567V18.4764H107.979V20.4697H101.577V12.3071Z" fill="var(--fill-0, white)"/>
<path id="Vector_5" d="M125.202 16.9981L126.607 20.4864H124.421L123.202 17.3868H121.208V20.4997H119.215V12.3072H123.883C124.436 12.3029 124.976 12.4805 125.419 12.8127C125.862 13.1449 126.184 13.6134 126.335 14.1462C126.486 14.679 126.457 15.2466 126.255 15.7618C126.052 16.277 125.685 16.7113 125.211 16.9981H125.202ZM124.421 14.832C124.419 14.6898 124.362 14.5539 124.261 14.4534C124.161 14.3528 124.025 14.2956 123.883 14.2938H121.198V15.3935H123.879C123.952 15.3926 124.024 15.3774 124.09 15.3486C124.157 15.3198 124.217 15.2781 124.267 15.2259C124.318 15.1737 124.357 15.112 124.384 15.0443C124.41 14.9767 124.423 14.9046 124.421 14.832Z" fill="var(--fill-0, white)"/>
<path id="Vector_6" d="M140.874 20.4863L139.705 17.5495V20.463H137.711V12.2938H139.784L141.924 17.7488L144.077 12.2938H146.136V20.463H144.143V17.5495L142.984 20.4863H140.874Z" fill="var(--fill-0, white)"/>
<path id="Vector_7" d="M162.901 19.4786H159.578L159.193 20.4753H157.04L160.189 12.2961H162.289L165.449 20.4753H163.286L162.901 19.4786ZM162.14 17.4853L161.229 15.1233L160.326 17.4853H162.14Z" fill="var(--fill-0, white)"/>
<path id="Vector_8" d="M176.64 12.3071H178.634V20.4631H176.64V12.3071Z" fill="var(--fill-0, white)"/>
<path id="Vector_9" d="M192.322 18.4863H196.84V20.4797H190.332V12.3071H192.325L192.322 18.4863Z" fill="var(--fill-0, white)"/>
<path id="Vector_10" d="M8.58224 16.3252L13.5124 24.8632H13.6519H24.2563L26.8143 20.4314L15.8412 20.4215L14.7615 18.5478H27.9007L29.1863 16.3252L27.9007 14.0994H14.7615L15.8412 12.2256H26.8176L24.2629 7.7972H13.5057L8.58224 16.3252Z" fill="var(--fill-0, white)"/>
<path id="Vector_11" d="M0 16.4281L9.44825 32.7799H28.3381L37.7863 16.4182L28.2816 0H9.38845L0 16.4281ZM25.491 4.8404L32.2084 16.4281L25.5375 27.9595H12.2489L5.60449 16.4281L12.1758 4.8404H25.491Z" fill="var(--fill-0, white)"/>
</g>
</svg>
