<svg preserveAspectRatio="xMidYMid meet" overflow="visible" style="display: block;" viewBox="0 0 125.486 44.2576" fill="none" xmlns="http://www.w3.org/2000/svg">
<g id="Group 1597883239">
<path id="Vector" d="M54.0523 26.7194H58.1695C58.1886 26.7194 58.2076 26.7155 58.2251 26.7078C58.2426 26.7001 58.2583 26.6889 58.2712 26.6748C58.2853 26.6616 58.2966 26.6457 58.3043 26.628C58.312 26.6103 58.3159 26.5911 58.3159 26.5718L58.4324 25.6492C58.4523 25.5512 58.4138 25.5029 58.3159 25.5029H52.925C52.8843 25.5012 52.8446 25.5156 52.8144 25.5429C52.7842 25.5703 52.7661 25.6085 52.7638 25.6492L51.5473 35.6111C51.5274 35.7091 51.5671 35.7574 51.6651 35.7574H52.744C52.7847 35.7591 52.8244 35.7447 52.8546 35.7173C52.8848 35.69 52.9029 35.6518 52.9052 35.6111L53.4322 31.2707C53.4319 31.2621 53.4338 31.2536 53.4377 31.246C53.4416 31.2384 53.4474 31.232 53.4546 31.2273C53.4696 31.2172 53.4873 31.212 53.5054 31.2124H56.2014C56.2422 31.2141 56.2819 31.1997 56.3121 31.1723C56.3422 31.1449 56.3604 31.1067 56.3627 31.0661L56.4644 30.1434C56.4842 30.0454 56.4458 29.9971 56.3478 29.9971H53.6567C53.6487 29.9981 53.6405 29.9973 53.6329 29.9947C53.6253 29.992 53.6184 29.9876 53.6127 29.9819C53.607 29.9761 53.6028 29.9691 53.6003 29.9614C53.5979 29.9537 53.5972 29.9455 53.5984 29.9375L53.994 26.774C53.9934 26.7663 53.9945 26.7586 53.9972 26.7514C54 26.7443 54.0043 26.7378 54.0099 26.7326C54.0156 26.7273 54.0223 26.7234 54.0296 26.7211C54.037 26.7188 54.0447 26.7183 54.0523 26.7194Z" fill="var(--fill-0, white)"/>
<path id="Vector_2" d="M62.6507 25.3863C62.0774 25.3798 61.5113 25.5148 61.0026 25.7794C60.5134 26.034 60.0973 26.4092 59.7935 26.8694C59.4765 27.3532 59.2808 27.9062 59.223 28.4816L58.6935 32.7836C58.6749 33.018 58.665 33.1842 58.665 33.2797C58.665 34.0709 58.9068 34.7033 59.3905 35.177C59.8741 35.6508 60.5305 35.8872 61.3598 35.8864C62.2175 35.9089 63.0512 35.6023 63.69 35.0295C64.3249 34.459 64.7007 33.7096 64.8172 32.7811L65.3455 28.4742C65.3641 28.2398 65.3741 28.0736 65.3741 27.9781C65.3741 27.1869 65.1302 26.5574 64.6424 26.0894C64.1546 25.6215 63.4907 25.3871 62.6507 25.3863ZM63.9839 28.4469L63.4419 32.8481C63.3961 33.349 63.1726 33.817 62.812 34.1676C62.4645 34.4968 62.0008 34.6752 61.5222 34.6636C61.3248 34.6732 61.1276 34.6423 60.9425 34.573C60.7574 34.5037 60.5884 34.3974 60.4458 34.2606C60.1771 33.9927 60.0428 33.629 60.0428 33.1693C60.0408 33.062 60.0458 32.9547 60.0576 32.8481L60.5847 28.4531C60.6414 27.9501 60.8659 27.4809 61.2221 27.1212C61.39 26.9533 61.5902 26.8213 61.8106 26.733C62.031 26.6448 62.2671 26.6022 62.5044 26.6078C62.7059 26.5978 62.9072 26.6304 63.0953 26.7035C63.2833 26.7765 63.4539 26.8885 63.5957 27.0319C63.8733 27.3404 64.0181 27.7459 63.9988 28.1604C64.0001 28.2561 63.9952 28.3518 63.9839 28.4469Z" fill="var(--fill-0, white)"/>
<path id="Vector_3" d="M73.5257 25.5027H72.4418C72.4225 25.5028 72.4035 25.5068 72.3858 25.5145C72.3681 25.5222 72.3521 25.5333 72.3389 25.5474C72.3107 25.5754 72.2905 25.6105 72.2806 25.6491L71.4014 32.8281C71.3557 33.3289 71.1364 33.7978 70.7813 34.1538C70.6123 34.3193 70.4119 34.4492 70.1919 34.5359C69.9718 34.6226 69.7367 34.6643 69.5003 34.6586C69.3048 34.6675 69.1096 34.6349 68.9277 34.5629C68.7458 34.4908 68.5812 34.381 68.4449 34.2406C68.1717 33.9349 68.0296 33.5341 68.0493 33.1245C68.0477 33.0267 68.0527 32.929 68.0642 32.8319L68.941 25.6553C68.9596 25.5573 68.9211 25.5089 68.8169 25.5089H67.7331C67.6924 25.5072 67.6526 25.5216 67.6225 25.549C67.5923 25.5764 67.5741 25.6146 67.5719 25.6553L66.7038 32.7463C66.6839 32.9807 66.6753 33.1468 66.6753 33.2423C66.6753 34.0534 66.9142 34.6958 67.392 35.1695C67.8699 35.6432 68.5197 35.8801 69.3415 35.8801C70.1946 35.9038 71.0237 35.5967 71.6556 35.0232C72.2806 34.451 72.6526 33.6917 72.7717 32.745L73.6584 25.6553C73.6584 25.5511 73.6137 25.5027 73.5257 25.5027Z" fill="var(--fill-0, white)"/>
<path id="Vector_4" d="M81.8025 25.5031H80.7484C80.7077 25.5014 80.668 25.5158 80.6378 25.5432C80.6076 25.5706 80.5894 25.6087 80.5872 25.6494L79.7365 32.4912C79.7365 32.5197 79.729 32.5346 79.7154 32.5346C79.695 32.5322 79.6763 32.5219 79.6633 32.5061L77.059 25.606C77.0467 25.5739 77.0244 25.5466 76.9953 25.528C76.9663 25.5095 76.9322 25.5008 76.8978 25.5031H75.8276C75.7869 25.5014 75.7471 25.5158 75.717 25.5432C75.6868 25.5706 75.6686 25.6087 75.6664 25.6494L74.4449 35.6113C74.425 35.7093 74.4635 35.7577 74.5614 35.7577H75.6465C75.6871 35.7587 75.7265 35.7441 75.7565 35.7168C75.7865 35.6896 75.8049 35.6518 75.8077 35.6113L76.6275 28.741C76.6374 28.7113 76.6498 28.6964 76.6634 28.6964C76.6771 28.6964 76.6907 28.7063 76.7006 28.7262L79.3049 35.6547C79.3136 35.7242 79.3681 35.7577 79.4661 35.7577H80.55C80.5692 35.7578 80.5882 35.754 80.6059 35.7466C80.6236 35.7391 80.6396 35.7281 80.6529 35.7143C80.6666 35.7009 80.6776 35.6849 80.685 35.6672C80.6925 35.6495 80.6963 35.6305 80.6963 35.6113L81.934 25.6556C81.9391 25.6382 81.9398 25.6199 81.9361 25.6021C81.9325 25.5844 81.9245 25.5678 81.9129 25.5539C81.8997 25.5375 81.8828 25.5244 81.8637 25.5155C81.8445 25.5067 81.8236 25.5024 81.8025 25.5031Z" fill="var(--fill-0, white)"/>
<path id="Vector_5" d="M89.6416 27.8879C89.6416 27.1554 89.4117 26.5742 88.9521 26.1443C88.4924 25.7144 87.8624 25.4994 87.0621 25.4994H84.1763C84.1356 25.4977 84.0959 25.5121 84.0657 25.5395C84.0355 25.5669 84.0174 25.6051 84.0151 25.6457L82.7998 35.6077C82.78 35.7056 82.8196 35.754 82.9164 35.754H85.8021C86.681 35.754 87.416 35.4952 88.0071 34.9777C88.5982 34.4601 88.9475 33.7715 89.055 32.9116L89.6118 28.3418C89.6316 28.1359 89.6416 27.9784 89.6416 27.8879ZM88.2353 28.4881L87.7132 32.769C87.6713 33.2483 87.4701 33.6998 87.1415 34.0513C86.992 34.2063 86.812 34.3286 86.6128 34.4106C86.4137 34.4926 86.1997 34.5324 85.9844 34.5275L84.3586 34.5424C84.3506 34.5435 84.3425 34.5426 84.3348 34.54C84.3272 34.5374 84.3203 34.533 84.3146 34.5272C84.309 34.5214 84.3047 34.5144 84.3023 34.5067C84.2998 34.499 84.2991 34.4909 84.3003 34.4829L85.2528 26.778C85.2515 26.77 85.2521 26.7619 85.2546 26.7542C85.2571 26.7466 85.2613 26.7396 85.267 26.7339C85.2727 26.7282 85.2797 26.724 85.2873 26.7215C85.295 26.719 85.3031 26.7184 85.3111 26.7197H86.9369C87.1165 26.7102 87.2961 26.7398 87.4631 26.8067C87.6301 26.8735 87.7806 26.9758 87.9041 27.1066C88.1499 27.3987 88.2753 27.7733 88.2551 28.1545C88.2543 28.2672 88.2477 28.3798 88.2353 28.4918V28.4881Z" fill="var(--fill-0, white)"/>
<path id="Vector_6" d="M95.1113 25.5028H93.7782C93.739 25.5038 93.7011 25.517 93.6697 25.5406C93.6384 25.5641 93.6152 25.5969 93.6033 25.6343L89.749 35.5962C89.7392 35.6143 89.7341 35.6345 89.7341 35.6551C89.7341 35.6756 89.7392 35.6959 89.749 35.714C89.761 35.7294 89.7768 35.7415 89.7948 35.7491C89.8128 35.7567 89.8325 35.7596 89.8519 35.7574H90.9681C91.0081 35.7594 91.0476 35.7474 91.0798 35.7234C91.1119 35.6994 91.1347 35.6649 91.1441 35.6259L91.7741 33.9257L91.8523 33.7161L94.9017 32.7637L95.0555 33.9257L95.2601 35.6259C95.2601 35.714 95.3097 35.7574 95.4065 35.7574H96.5226C96.6205 35.7574 96.6701 35.714 96.6701 35.6259V35.5962L95.2477 25.6343C95.2504 25.6159 95.2487 25.5972 95.2427 25.5797C95.2367 25.5622 95.2266 25.5464 95.2133 25.5335C95.1999 25.5207 95.1837 25.5112 95.166 25.5058C95.1483 25.5005 95.1295 25.4995 95.1113 25.5028ZM94.1887 27.4362C94.1986 27.4176 94.2085 27.4076 94.2184 27.4076C94.2283 27.4076 94.237 27.4176 94.2469 27.4362L94.7628 31.6526L92.3347 32.4115L94.1887 27.4362Z" fill="var(--fill-0, white)"/>
<path id="Vector_7" d="M103.772 25.5475C103.761 25.5335 103.746 25.5222 103.729 25.5145C103.713 25.5068 103.695 25.5028 103.677 25.5029H97.7142C97.6735 25.5012 97.6338 25.5156 97.6036 25.5429C97.5734 25.5703 97.5552 25.6085 97.553 25.6492L97.429 26.5867C97.429 26.6847 97.4736 26.7331 97.5617 26.7331H99.7443C99.7523 26.732 99.7605 26.7328 99.7681 26.7355C99.7757 26.7381 99.7827 26.7425 99.7883 26.7483C99.794 26.754 99.7982 26.761 99.8007 26.7687C99.8032 26.7764 99.8038 26.7846 99.8026 26.7926L98.7187 35.6111C98.6989 35.7091 98.7386 35.7574 98.8427 35.7574H99.9266C99.9673 35.7591 100.007 35.7447 100.037 35.7173C100.067 35.69 100.086 35.6518 100.088 35.6111L101.172 26.7926C101.17 26.7846 101.171 26.7764 101.174 26.7687C101.176 26.761 101.18 26.754 101.186 26.7483C101.192 26.7425 101.199 26.7381 101.206 26.7355C101.214 26.7328 101.222 26.732 101.23 26.7331H103.516C103.538 26.7351 103.561 26.7323 103.582 26.7248C103.604 26.7173 103.623 26.7053 103.64 26.6896C103.653 26.6763 103.664 26.6602 103.672 26.6426C103.679 26.6249 103.683 26.6059 103.683 26.5867L103.801 25.6492C103.805 25.6312 103.804 25.6125 103.799 25.5948C103.794 25.5771 103.785 25.5609 103.772 25.5475Z" fill="var(--fill-0, white)"/>
<path id="Vector_8" d="M106.7 25.5031H105.617C105.596 25.5016 105.574 25.5044 105.554 25.5113C105.534 25.5183 105.516 25.5292 105.501 25.5435C105.485 25.5578 105.473 25.5751 105.464 25.5944C105.455 25.6137 105.451 25.6345 105.45 25.6557L104.234 35.6176C104.214 35.7155 104.254 35.7639 104.352 35.7639H105.436C105.476 35.7656 105.516 35.7512 105.546 35.7238C105.576 35.6964 105.595 35.6583 105.597 35.6176L106.815 25.6557C106.837 25.5515 106.797 25.5031 106.7 25.5031Z" fill="var(--fill-0, white)"/>
<path id="Vector_9" d="M111.855 25.3863C111.282 25.3799 110.716 25.5149 110.207 25.7794C109.718 26.034 109.302 26.4091 108.998 26.8694C108.681 27.3531 108.486 27.9062 108.428 28.4816L107.901 32.7886C107.881 33.0225 107.871 33.1879 107.871 33.2846C107.871 34.0758 108.113 34.7083 108.596 35.182C109.08 35.6557 109.737 35.8922 110.566 35.8913C111.423 35.9141 112.257 35.6075 112.896 35.0344C113.531 34.464 113.907 33.7145 114.023 32.7861L114.551 28.4791C114.57 28.2447 114.58 28.0786 114.58 27.9831C114.58 27.1919 114.336 26.5623 113.848 26.0944C113.361 25.6264 112.696 25.3904 111.855 25.3863ZM113.189 28.4469L112.647 32.8481C112.6 33.3463 112.378 33.8118 112.02 34.1614C111.673 34.4907 111.209 34.6691 110.731 34.6574C110.533 34.667 110.336 34.6361 110.151 34.5668C109.966 34.4975 109.797 34.3912 109.654 34.2544C109.517 34.1093 109.41 33.9378 109.341 33.7502C109.271 33.5625 109.241 33.3628 109.251 33.1631C109.249 33.0554 109.254 32.9477 109.266 32.8406L109.788 28.4469C109.845 27.944 110.07 27.475 110.426 27.115C110.593 26.9471 110.794 26.8151 111.014 26.7268C111.235 26.6386 111.471 26.596 111.708 26.6016C111.909 26.5916 112.111 26.6242 112.299 26.6973C112.487 26.7703 112.657 26.8823 112.799 27.0257C113.077 27.3339 113.222 27.7396 113.202 28.1542C113.204 28.252 113.2 28.3497 113.189 28.4469Z" fill="var(--fill-0, white)"/>
<path id="Vector_10" d="M123.007 25.5031H121.951C121.911 25.5017 121.871 25.5162 121.841 25.5435C121.811 25.5709 121.793 25.6088 121.79 25.6494L120.941 32.4912C120.941 32.5197 120.941 32.5346 120.919 32.5346C120.899 32.5322 120.88 32.5219 120.867 32.5061L118.263 25.606C118.251 25.5739 118.228 25.5466 118.199 25.528C118.17 25.5095 118.136 25.5008 118.102 25.5031H117.032C116.991 25.5014 116.951 25.5158 116.921 25.5432C116.891 25.5706 116.873 25.6087 116.87 25.6494L115.655 35.6113C115.635 35.7093 115.675 35.7577 115.772 35.7577H116.858C116.899 35.7594 116.938 35.745 116.969 35.7176C116.999 35.6902 117.017 35.652 117.019 35.6113L117.84 28.741C117.85 28.7113 117.863 28.6964 117.877 28.6964C117.891 28.6964 117.903 28.7063 117.913 28.7262L120.518 35.6547C120.528 35.7242 120.581 35.7577 120.679 35.7577H121.763C121.782 35.7578 121.801 35.754 121.819 35.7466C121.836 35.7391 121.852 35.7281 121.866 35.7143C121.879 35.7009 121.89 35.6849 121.898 35.6672C121.905 35.6495 121.909 35.6305 121.909 35.6113L123.138 25.6556C123.143 25.6382 123.144 25.6199 123.14 25.6021C123.137 25.5844 123.129 25.5678 123.117 25.5539C123.104 25.5375 123.087 25.5244 123.068 25.5155C123.049 25.5067 123.028 25.5024 123.007 25.5031Z" fill="var(--fill-0, white)"/>
<path id="Vector_11" d="M53.1157 22.6137L55.0404 7.00299C55.0451 6.94049 55.0733 6.88208 55.1193 6.83952C55.1653 6.79695 55.2258 6.77339 55.2884 6.77357H56.4132C56.5509 6.77357 56.6203 6.85046 56.6203 7.00299L54.8519 21.3289C54.8508 21.3413 54.8523 21.3538 54.8564 21.3655C54.8604 21.3773 54.867 21.3881 54.8755 21.3971C54.881 21.4041 54.8879 21.4098 54.8959 21.4139C54.9038 21.418 54.9125 21.4203 54.9214 21.4207H61.4246C61.5771 21.4207 61.6379 21.4976 61.6081 21.6501L61.4928 22.6137C61.4884 22.6764 61.4603 22.7351 61.4143 22.7779C61.3682 22.8208 61.3076 22.8445 61.2448 22.8443H53.3191C53.1815 22.8443 53.1157 22.7675 53.1157 22.6137Z" fill="var(--fill-0, white)"/>
<path id="Vector_12" d="M62.9379 22.6137L64.8663 7.00299C64.871 6.94049 64.8991 6.88208 64.9452 6.83952C64.9912 6.79695 65.0516 6.77339 65.1143 6.77357H66.2391C66.3767 6.77357 66.4462 6.85046 66.4462 7.00299L64.5252 22.6137C64.5208 22.6764 64.4928 22.7351 64.4467 22.7779C64.4007 22.8208 64.3401 22.8445 64.2772 22.8443H63.1524C63.0073 22.8443 62.9379 22.7675 62.9379 22.6137Z" fill="var(--fill-0, white)"/>
<path id="Vector_13" d="M77.5603 7.00261L77.4202 7.96743C77.4186 8.02757 77.3941 8.08484 77.3517 8.1275C77.3093 8.17016 77.2521 8.19497 77.192 8.19685H73.5423C73.5295 8.19525 73.5165 8.1967 73.5043 8.2011C73.4921 8.20549 73.4812 8.2127 73.4724 8.22214C73.4635 8.23157 73.4571 8.24297 73.4535 8.25538C73.4499 8.2678 73.4493 8.28089 73.4518 8.29358L71.6834 22.6133C71.6834 22.6435 71.6773 22.6734 71.6653 22.7011C71.6534 22.7288 71.6359 22.7538 71.6139 22.7745C71.5896 22.798 71.5609 22.8162 71.5293 22.8282C71.4977 22.8401 71.4641 22.8455 71.4304 22.844H70.3056C70.1518 22.844 70.091 22.7671 70.122 22.6133L71.8669 8.29358C71.8669 8.23282 71.8433 8.20181 71.7974 8.20181H68.2854C68.2567 8.20259 68.2283 8.19673 68.2022 8.18468C68.1762 8.17263 68.1533 8.15473 68.1354 8.13236C68.1169 8.11061 68.1041 8.08457 68.0983 8.05663C68.0924 8.02869 68.0937 7.99973 68.1019 7.97239L68.216 7.00757C68.2207 6.94507 68.2489 6.88666 68.2949 6.8441C68.3409 6.80154 68.4013 6.77797 68.464 6.77815H77.3482C77.4909 6.77319 77.5603 6.85008 77.5603 7.00261Z" fill="var(--fill-0, white)"/>
<path id="Vector_14" d="M87.5497 8.19723H80.8691C80.8558 8.19448 80.8421 8.19508 80.8291 8.19897C80.8161 8.20286 80.8043 8.20992 80.7947 8.21951C80.7851 8.2291 80.778 8.24093 80.7741 8.25392C80.7703 8.26692 80.7697 8.28068 80.7724 8.29396L80.0606 13.9874C80.0589 13.9998 80.0602 14.0125 80.0642 14.0243C80.0683 14.0362 80.075 14.047 80.0839 14.0559C80.0927 14.0647 80.1035 14.0714 80.1154 14.0755C80.1273 14.0795 80.1399 14.0808 80.1523 14.0791H84.6527C84.8053 14.0791 84.8661 14.156 84.8363 14.3086L84.721 15.2734C84.7163 15.3359 84.6881 15.3943 84.6421 15.4369C84.596 15.4794 84.5356 15.503 84.4729 15.5028H79.9738C79.9613 15.5012 79.9487 15.5024 79.9368 15.5065C79.9249 15.5105 79.9141 15.5172 79.9053 15.5261C79.8964 15.535 79.8897 15.5457 79.8857 15.5576C79.8816 15.5695 79.8804 15.5821 79.882 15.5946L79.1702 21.3339C79.169 21.3463 79.1706 21.3587 79.1746 21.3705C79.1787 21.3823 79.1852 21.393 79.1937 21.4021C79.1992 21.4091 79.2062 21.4148 79.2141 21.4189C79.222 21.4229 79.2307 21.4252 79.2396 21.4256H85.9202C85.952 21.4231 85.984 21.428 86.0137 21.4398C86.0434 21.4516 86.0699 21.4701 86.0913 21.4939C86.1102 21.5156 86.1233 21.5418 86.1294 21.57C86.1354 21.5982 86.1343 21.6274 86.126 21.6551L86.0119 22.6186C86.0075 22.6814 85.9795 22.7401 85.9334 22.7829C85.8874 22.8257 85.8268 22.8495 85.7639 22.8493H77.6324C77.4947 22.8493 77.4253 22.7724 77.4253 22.6186L79.3537 7.00299C79.3584 6.94049 79.3866 6.88208 79.4326 6.83952C79.4786 6.79695 79.539 6.77339 79.6017 6.77357H87.7283C87.8808 6.77357 87.9428 6.85046 87.9118 7.00299L87.7977 7.96781C87.793 8.03031 87.7648 8.08872 87.7188 8.13128C87.6728 8.17385 87.6124 8.19741 87.5497 8.19723Z" fill="var(--fill-0, white)"/>
<path id="Vector_15" d="M89.1296 22.0057C88.4103 21.3253 88.0507 20.3956 88.0507 19.2167C88.0507 19.079 88.0655 18.8446 88.0965 18.5048L89.0155 11.0901C89.1684 9.72766 89.7058 8.63676 90.6276 7.81745C91.5495 6.99814 92.6933 6.5889 94.0591 6.58973C95.2992 6.58973 96.2789 6.93035 96.9982 7.61159C97.7174 8.29283 98.0771 9.21466 98.0771 10.3771C98.0771 10.516 98.0609 10.7379 98.0312 11.043L98.0076 11.2501C97.9925 11.3113 97.9608 11.3671 97.9159 11.4113C97.8953 11.4331 97.8705 11.4503 97.8429 11.4621C97.8154 11.4738 97.7858 11.4797 97.7559 11.4795L96.6075 11.5254C96.5794 11.5294 96.5508 11.5268 96.524 11.5177C96.4971 11.5087 96.4727 11.4935 96.4527 11.4734C96.4327 11.4533 96.4177 11.4288 96.4088 11.4019C96.4 11.375 96.3975 11.3464 96.4017 11.3183L96.4463 10.9971C96.4651 10.8375 96.473 10.6767 96.4699 10.516C96.4699 9.75039 96.2363 9.1419 95.7692 8.6905C95.3021 8.23909 94.6709 8.01339 93.8755 8.01339C92.9876 8.01339 92.2435 8.28498 91.6433 8.82815C91.0431 9.37133 90.695 10.0943 90.5991 10.9971L89.6579 18.6202C89.6399 18.7724 89.6324 18.9257 89.6355 19.079C89.6355 19.8438 89.865 20.456 90.3238 20.9156C90.7827 21.3753 91.4102 21.6047 92.2063 21.6039C93.0288 21.6254 93.8281 21.3297 94.4385 20.778C95.0484 20.2151 95.4283 19.4465 95.5051 18.6202L95.5509 18.2977C95.5587 18.2385 95.5885 18.1843 95.6345 18.1461C95.6805 18.1079 95.7393 18.0886 95.799 18.0919L96.9238 18.1601C97.0614 18.1601 97.1309 18.2221 97.1309 18.3436L97.085 18.5507C96.9312 19.8975 96.3938 20.9805 95.4728 21.7999C94.5518 22.6192 93.4076 23.0284 92.0401 23.0276C90.8199 23.0276 89.8497 22.687 89.1296 22.0057Z" fill="var(--fill-0, white)"/>
<path id="Vector_16" d="M99.9531 21.9598C99.2264 21.248 98.8631 20.2972 98.8631 19.1075C98.8631 18.9546 98.8784 18.7099 98.9089 18.3734L99.777 11.2799C99.9424 9.8744 100.497 8.74175 101.441 7.88193C102.385 7.02211 103.539 6.59138 104.901 6.58972C106.141 6.58972 107.128 6.94936 107.863 7.66863C108.597 8.38791 108.964 9.34445 108.964 10.5383C108.964 10.6921 108.949 10.9364 108.918 11.2737L108.05 18.3672C107.885 19.7603 107.326 20.8851 106.374 21.7416C105.423 22.5981 104.265 23.0268 102.902 23.0276C101.664 23.0276 100.681 22.6717 99.9531 21.9598ZM105.349 20.7309C105.969 20.1521 106.341 19.387 106.465 18.4354L107.36 11.2278C107.377 11.0597 107.385 10.8908 107.383 10.7218C107.383 9.89507 107.145 9.23698 106.671 8.74754C106.196 8.25811 105.553 8.01339 104.74 8.01339C104.32 8.00315 103.902 8.07586 103.51 8.22738C103.118 8.37889 102.76 8.60622 102.456 8.89636C101.836 9.48666 101.472 10.2638 101.366 11.2278L100.47 18.4354C100.452 18.6034 100.445 18.7724 100.448 18.9414C100.448 19.7524 100.685 20.3989 101.159 20.8809C101.632 21.3629 102.268 21.6039 103.065 21.6039C103.911 21.6258 104.733 21.3119 105.349 20.7309Z" fill="var(--fill-0, white)"/>
<path id="Vector_17" d="M109.881 22.6137L111.809 7.00299C111.814 6.94049 111.842 6.88208 111.888 6.83952C111.934 6.79695 111.995 6.77339 112.057 6.77357H113.182C113.32 6.77357 113.388 6.85046 113.388 7.00299L111.464 22.6137C111.46 22.6764 111.432 22.7351 111.386 22.7779C111.34 22.8208 111.279 22.8445 111.216 22.8443H110.09C109.949 22.8443 109.881 22.7675 109.881 22.6137Z" fill="var(--fill-0, white)"/>
<path id="Vector_18" d="M114.249 22.6137L116.177 7.00299C116.182 6.94049 116.21 6.88208 116.256 6.83952C116.302 6.79695 116.363 6.77339 116.426 6.77357H117.55C117.703 6.77357 117.787 6.82813 117.798 6.93478L122.299 19.0334C122.318 19.0583 122.347 19.0747 122.378 19.0793C122.402 19.0793 122.413 19.0558 122.413 19.0099L123.882 7.00299C123.898 6.94218 123.929 6.88678 123.974 6.84302C123.995 6.82103 124.02 6.80352 124.048 6.79158C124.075 6.77963 124.105 6.7735 124.135 6.77357H125.294C125.447 6.77357 125.508 6.85046 125.478 7.00299L123.57 22.6137C123.565 22.6764 123.537 22.7351 123.491 22.7779C123.445 22.8208 123.385 22.8445 123.322 22.8443H122.151C122.014 22.8443 121.937 22.791 121.922 22.6831L117.418 10.5386C117.387 10.5076 117.359 10.4964 117.337 10.5039C117.315 10.5113 117.302 10.5386 117.302 10.5845L115.833 22.6137C115.828 22.6764 115.8 22.7351 115.754 22.7779C115.708 22.8208 115.648 22.8445 115.585 22.8443H114.455C114.317 22.8443 114.249 22.7675 114.249 22.6137Z" fill="var(--fill-0, white)"/>
<path id="Vector_19" d="M10.1901 0C7.48752 0 4.89563 1.0736 2.98461 2.98461C1.0736 4.89563 0 7.48752 0 10.1901V44.2576H34.0662C36.7688 44.2576 39.3607 43.184 41.2717 41.273C43.1827 39.3619 44.2563 36.77 44.2563 34.0675V0H10.1901ZM33.084 31.4372L32.0262 35.129C31.9761 35.3051 31.8699 35.4601 31.7238 35.5704C31.5776 35.6807 31.3995 35.7404 31.2164 35.7404L12.4112 35.7342L15.5884 24.9935L12.0689 26.0823L12.8216 23.5289L16.3424 22.4388L20.8068 7.35022C20.8573 7.17415 20.9637 7.01933 21.1101 6.90923C21.2564 6.79912 21.4347 6.73974 21.6179 6.74008H26.3799C26.4779 6.7401 26.5745 6.76289 26.6622 6.80664C26.7499 6.85039 26.8262 6.91391 26.8851 6.99219C26.944 7.07048 26.984 7.16138 27.0017 7.25773C27.0195 7.35408 27.0147 7.45324 26.9876 7.5474L23.23 20.3008L26.7495 19.2071L25.9967 21.7605L22.4735 22.8567L20.183 30.6286H32.4751C32.5733 30.6286 32.6701 30.6515 32.7579 30.6953C32.8457 30.7391 32.9221 30.8027 32.9812 30.8811C33.0402 30.9595 33.0802 31.0505 33.0981 31.147C33.1159 31.2435 33.1111 31.3428 33.084 31.4372Z" fill="var(--fill-0, white)"/>
</g>
</svg>
