<svg preserveAspectRatio="xMidYMid meet" overflow="visible" style="display: block;" viewBox="0 0 74.6915 25.9099" fill="none" xmlns="http://www.w3.org/2000/svg">
<g id="LitVM">
<path id="Vector" d="M56.27 25.9099V0.0174216H59.5551L64.3592 5.40434C64.7124 5.7929 65.101 5.96952 65.4719 5.96952C65.8428 5.96952 66.2313 5.77524 66.5846 5.40434L71.3533 0.0174216H74.6915V25.9099H71.4063V6.60535C71.4063 5.91654 71.0178 5.52797 70.5409 5.52797C70.2759 5.52797 69.958 5.68693 69.6754 6.02251L65.5072 10.8089H65.4542L61.2683 6.09315C60.9857 5.75758 60.6678 5.61628 60.3852 5.61628C59.926 5.61628 59.5551 5.98718 59.5551 6.676V25.9099H56.27Z" fill="var(--fill-0, white)"/>
<path id="Vector_2" d="M50.2214 0H53.6301L46.2651 25.8925H40.8958L33.3541 0H36.9042L43.1919 22.3425C43.2625 22.5897 43.4038 22.8017 43.6511 22.8017C43.916 22.8017 44.022 22.5897 44.0926 22.3425L50.2214 0Z" fill="var(--fill-0, white)"/>
<path id="Vector_3" d="M29.6937 7.43529C29.6937 7.91217 29.9409 8.15943 30.4178 8.15943H33.1731V10.6674H30.4178C29.9409 10.6674 29.6937 10.9147 29.6937 11.3916V25.9098H26.5322V11.3916C26.5322 10.9147 26.2849 10.6674 25.808 10.6674H24.0418V8.15943H25.808C26.2849 8.15943 26.5322 7.91217 26.5322 7.43529V3.92055H29.6937V7.43529Z" fill="var(--fill-0, white)"/>
<path id="Vector_4" d="M18.3973 25.9097V8.15941H21.5588V25.9097H18.3973ZM17.9204 3.81456C17.9204 2.68419 18.8742 1.78342 20.0222 1.78342C21.1349 1.78342 22.071 2.68419 22.071 3.81456C22.071 4.98025 21.1349 5.88101 20.0222 5.88101C18.8742 5.88101 17.9204 4.98025 17.9204 3.81456Z" fill="var(--fill-0, white)"/>
<path id="Vector_5" d="M0 25.9099V0.0174216H3.28514V21.5651C3.28514 22.5365 3.86798 23.1193 4.83939 23.1193H16.1078V25.9099H0Z" fill="var(--fill-0, white)"/>
</g>
</svg>
