<svg preserveAspectRatio="xMidYMid meet" overflow="visible" style="display: block;" viewBox="0 0 38.5819 37.9187" fill="none" xmlns="http://www.w3.org/2000/svg">
<g id="Group 1410077690">
<path id="Vector 17" d="M10.0483 27.2542V6.75014C10.0483 5.82592 8.93502 5.35855 8.27531 6.00581L0.31247 13.8184C0.112605 14.0145 0 14.2827 0 14.5627V36.8759C0 37.4518 0.466857 37.9187 1.04275 37.9187H22.9024C23.1703 37.9187 23.4279 37.8156 23.6218 37.6308L31.5293 30.0945C32.2106 29.4452 31.751 28.2969 30.8099 28.2969H11.0911C10.5152 28.2969 10.0483 27.8301 10.0483 27.2542Z" fill="var(--fill-0, white)"/>
<path id="Vector 18" d="M18.5152 0.0746654L11.5093 7.19726C11.3539 7.35529 11.4659 7.62243 11.6875 7.62243H20.9628C21.1008 7.62243 21.2127 7.73432 21.2127 7.87235V17.3691C21.2127 17.5072 21.3246 17.6191 21.4627 17.6191H30.8345C30.9725 17.6191 31.0844 17.731 31.0844 17.869V26.6375C31.0844 26.8601 31.3536 26.9716 31.511 26.8142L38.5087 19.8165C38.5555 19.7697 38.5819 19.7061 38.5819 19.6398V9.87167C38.5819 9.73365 38.47 9.62176 38.332 9.62176H28.9601C28.8221 9.62176 28.7102 9.50986 28.7102 9.37184V0.249916C28.7102 0.111891 28.5983 0 28.4603 0H18.6933C18.6264 0 18.5622 0.0269009 18.5152 0.0746654Z" fill="var(--fill-0, white)"/>
</g>
</svg>
