<svg preserveAspectRatio="xMidYMid meet" overflow="visible" style="display: block;" viewBox="0 0 85.1521 42.3233" fill="none" xmlns="http://www.w3.org/2000/svg">
<path id="Vector" d="M48.2164 32.7072V42.0401H43.437V35.574L37.9907 36.2126C36.7945 36.3512 36.2687 36.7465 36.2687 37.4723C36.2687 38.5367 37.2676 38.9855 39.4099 38.9855C40.7155 38.9855 42.1624 38.7895 43.4397 38.4516L40.9663 41.9827C39.9667 42.207 38.9929 42.3179 37.9657 42.3179C33.631 42.3179 31.1576 40.581 31.1576 37.498C31.1576 34.7792 33.1019 33.3512 37.521 32.8457L43.3586 32.1618C43.043 30.4507 41.7624 29.7066 39.2159 29.7066C36.8256 29.7066 34.1859 30.3229 31.8246 31.4725L32.5754 27.296C34.7704 26.3708 37.2723 25.8943 39.7998 25.8943C45.359 25.8943 48.2211 28.2218 48.2211 32.7031L48.2157 32.7065L48.2164 32.7072ZM5.22401 21.0211L0 42.0394H5.22401L7.81642 31.4779L12.3106 36.9107H17.7576L22.2517 31.4779L24.8441 42.0394H30.0681L24.8441 21.0184L15.0327 32.7694L5.22131 21.0184L5.22401 21.0211ZM24.8441 0L15.0327 11.751L5.22401 0L0 21.0211H5.22401L7.81642 10.4595L12.3106 15.8924H17.7576L22.2517 10.4595L24.8441 21.0211H30.0681L24.8441 0ZM60.777 32.5112L56.5532 31.8949C55.4975 31.7279 55.0812 31.39 55.0812 30.8021C55.0812 29.8492 56.1085 29.4288 58.2217 29.4288C60.6682 29.4288 62.8632 29.9337 65.1711 31.0264L64.5885 26.9081C62.7253 26.2356 60.5864 25.9004 58.363 25.9004C53.1673 25.9004 50.3303 27.7224 50.3303 31.0008C50.3303 33.5526 51.8867 34.9806 55.1934 35.4854L59.4747 36.1302C60.558 36.2978 61.0027 36.7181 61.0027 37.3905C61.0027 38.3434 60.0038 38.7922 57.9744 38.7922C55.3063 38.7922 52.4158 38.1481 50.0539 36.9986L50.527 41.117C52.5564 41.8752 55.1968 42.3233 57.6703 42.3233C63.0065 42.3233 65.7847 40.4445 65.7847 37.1094C65.7847 34.4467 64.2283 33.016 60.7837 32.5139L60.777 32.5112ZM67.6432 22.8964V42.0388H72.4219V22.8971L67.6432 22.8964ZM78.0061 33.4357L84.6513 26.1748H78.7042L72.4219 33.6858L79.1205 42.0361H85.1521L78.0061 33.433V33.4357ZM66.9762 16.4796C66.9762 19.5613 69.4496 21.2982 73.7843 21.2982C74.8115 21.2982 75.7854 21.1853 76.7849 20.9636L79.2583 17.4325C77.9811 17.7677 76.5342 17.9664 75.2285 17.9664C73.0889 17.9664 72.0873 17.5177 72.0873 16.4533C72.0873 15.7241 72.6165 15.3321 73.81 15.1936L79.2556 14.5549V21.0204H84.035V11.6875C84.035 7.20346 81.1722 4.87867 75.6137 4.87867C73.0835 4.87867 70.5843 5.35512 68.3886 6.28098L67.6371 10.4561C69.9991 9.30658 72.6388 8.69024 75.0284 8.69024C77.5756 8.69024 78.8562 9.43363 79.1712 11.1455L73.3342 11.8301C68.9151 12.3349 66.9701 13.7629 66.9701 16.4817L66.9762 16.4796ZM53.6093 15.4713C53.6093 19.3403 55.8327 21.3015 60.2235 21.3015C61.9738 21.3015 63.4214 21.0204 64.8089 20.3757L65.4191 16.1444C64.0851 16.9554 62.7226 17.3758 61.3609 17.3758C59.3037 17.3758 58.3859 16.5357 58.3859 14.657V9.05113H65.6387V5.15643H58.3853V1.85037L49.297 6.69863V9.0518H53.6032V15.4693L53.6086 15.472L53.6093 15.4713ZM48.9124 13.7061V14.6597H35.995C36.5776 16.6013 38.3083 17.4893 41.3812 17.4893C43.8276 17.4893 46.1072 16.9845 48.1339 16.0052L47.5514 20.0979C45.6881 20.8819 43.3269 21.3042 40.9088 21.3042C34.4886 21.3042 30.9879 18.4456 30.9879 13.1499C30.9879 7.85291 34.5454 4.88138 40.0478 4.88138C45.5503 4.88138 48.9138 8.10567 48.9138 13.7088L48.9104 13.7061H48.9124ZM35.9328 11.4077H44.1007C43.6702 9.54852 42.2544 8.57738 39.9917 8.57738C37.7285 8.57738 36.3863 9.52284 35.9328 11.4077Z" fill="var(--fill-0, white)"/>
</svg>
